<?xml version="1.0" encoding="UTF-8" standalone="no"?>
<!-- Created with Inkscape (http://www.inkscape.org/) -->

<svg
   xmlns:dc="http://purl.org/dc/elements/1.1/"
   xmlns:cc="http://creativecommons.org/ns#"
   xmlns:rdf="http://www.w3.org/1999/02/22-rdf-syntax-ns#"
   xmlns:svg="http://www.w3.org/2000/svg"
   xmlns="http://www.w3.org/2000/svg"
   xmlns:xlink="http://www.w3.org/1999/xlink"
   version="1.0"
   width="823.99994"
   height="175.97615"
   viewBox="0 0 835.97575 189.43431"
   id="Layer_1"
   xml:space="preserve"><metadata
   id="metadata3009"><rdf:RDF><cc:Work
       rdf:about=""><dc:format>image/svg+xml</dc:format><dc:type
         rdf:resource="http://purl.org/dc/dcmitype/StillImage" /><dc:title></dc:title></cc:Work></rdf:RDF></metadata><defs
   id="defs18" />
<g
   transform="translate(12.917727,12.917729)"
   id="g3">
	
	<g
   transform="matrix(1.0764758,0,0,1.0764758,-33.966802,186.51281)"
   id="g7">
		<defs
   id="defs9">
			<path
   d="m 784.093,8.888 0,3.646 c -4.066,-1.018 -5.693,5.193 -3.959,18.46 l 4.915,37.646 4.447,-37.197 c 0.5,-4.226 0.722,-7.488 0.881,-9.299 0.507,-5.779 -0.778,-8.987 -3.833,-9.61 l 0,-3.646 19.27,0 0,3.958 c -3.259,0.205 -4.551,1.664 -4.902,4.269 l -11.058,82.076 0,45.184 c -0.21,5.074 1.331,7.837 4.59,8.225 l 0,3.981 -22.005,0 0,-4.288 c 2.838,-0.182 4.271,-2.844 4.271,-7.918 l 0,-50.678 -7.991,-67.345 c -0.921,-7.767 -4.135,-13.017 -6.916,-14.105 l -0.318,-3.358 22.608,0 0,-10e-4 z m -82.83,95.206 16.5,-8.543 c -2.03,31.737 -1.484,48.403 1.672,50.041 3.157,1.626 4.954,0.818 5.347,-2.435 1.848,-12.218 1.848,-24.514 0,-36.936 C 724.179,99.918 722.957,95.449 721.13,92.786 709.71,75.105 703.192,61.879 701.576,53.125 L 701.263,22.92 c 2.241,-10.596 8.344,-15.883 18.325,-15.883 11.217,0.206 17.109,7.34 17.734,21.378 l 0.91,19.531 -15.276,9.764 c 0.204,-12.212 0.204,-23.619 0,-34.189 0,-5.079 -1.178,-7.681 -3.521,-7.789 -2.35,-0.102 -3.492,2.295 -3.492,7.189 l 0.284,30.521 c 10.402,16.665 17.416,29.47 21.096,38.435 3.646,8.964 4.977,21.772 3.959,38.46 -1.012,18.519 -7.639,27.653 -19.867,27.449 -11.808,-0.604 -18.514,-8.748 -20.151,-24.479 l 0,-29.213 -10e-4,0 z m -46.389,53.089 0,-2.138 c 2.45,-2.446 3.259,-11.194 2.45,-26.244 l -7.638,0 c -1.229,15.05 -0.522,23.798 2.138,26.244 l 0,2.138 -19.872,0 0,-2.138 c 1.644,-0.206 3.003,-0.854 4.124,-1.969 1.12,-1.126 4.532,-49.893 10.243,-146.324 l 15.88,0 c 7.537,96.432 11.711,145.198 12.541,146.324 0.809,1.115 2.037,1.763 3.652,1.969 l 0,2.138 -23.518,0 0,0 z m -4.75,-41.508 5.973,0 -3.049,-49.422 -2.924,49.422 0,0 z M 566.328,5.813 l 42.76,0 0,54.033 -5.188,0 C 602.876,38.079 600.038,25.16 595.346,21.073 l 0,125.121 c 0,4.903 2.241,7.951 6.729,9.169 l 0,2.138 -28.422,0 0,-2.138 c 4.874,-1.218 7.115,-4.38 6.723,-9.477 l 0,-124.812 c -5.107,3.879 -8.372,16.796 -9.776,38.773 l -4.271,0 0,-54.034 -10e-4,0 z m -66.546,11.302 c 0.597,-3.671 -1.041,-5.884 -4.903,-6.717 l 0,-3.959 21.692,0 11.922,85.13 0,-75.677 c 0,-3.045 -1.229,-4.766 -3.68,-5.181 l 0,-4.272 18.645,0 0,3.958 c -2.634,0.623 -3.862,4.897 -3.652,12.812 l 0,133.667 -14.367,0 -14.681,-95.804 0,85.748 c -0.603,4.459 0.939,6.585 4.591,6.403 l 0,3.652 -20.782,0 0.313,-3.368 c 3.469,-0.386 5.085,-2.729 4.903,-6.995 l 0,-129.397 -0.001,0 z m -51.602,140.068 0,-2.138 c 2.452,-2.446 3.256,-11.194 2.452,-26.244 l -7.639,0 c -1.226,15.05 -0.523,23.798 2.135,26.244 l 0,2.138 -19.867,0 0,-2.138 c 1.641,-0.206 2.998,-0.854 4.118,-1.969 1.121,-1.126 4.539,-49.893 10.247,-146.324 l 15.88,0 c 7.536,96.432 11.711,145.198 12.541,146.324 0.811,1.115 2.036,1.763 3.651,1.969 l 0,2.138 -23.518,0 0,0 z m -4.743,-41.508 5.969,0 -3.055,-49.422 -2.914,49.422 0,0 z M 361.144,15.58 c 0,-3.253 -1.826,-4.869 -5.5,-4.869 l 0,-3.959 46.747,0 0,50.049 -4.274,0 c -1.433,-15.886 -3.677,-26.718 -6.725,-32.522 -3.055,-5.784 -7.645,-8.776 -13.745,-8.984 l 0,51.87 c 5.503,1.822 8.344,-5.805 8.555,-22.891 l 4.277,0.315 0,62.553 -4.277,0 c 0,-16.482 -2.844,-25.343 -8.555,-26.538 l 0,64.988 c 0,5.892 1.411,8.133 4.278,6.7 l 0.313,4.584 -25.683,0 -0.313,-4.584 c 3.467,1.216 5.11,-0.91 4.903,-6.405 l 0,-130.307 -10e-4,0 z m -95.505,3.671 c -0.21,-5.284 -2.241,-8.02 -6.103,-8.23 l 0,-4.582 27.795,0 0,4.271 c -4.066,0.415 -6.1,3.256 -6.1,8.54 l 0.077,128.32 c 7.693,-0.512 13.662,-17.859 17.942,-52.02 l 3.987,0 0,61.632 -44.015,0 0,-4.266 c 4.07,-0.421 6.206,-2.832 6.416,-7.325 l 0,-126.34 0.001,0 z m -51.809,137.932 0,-2.138 c 2.452,-2.446 3.262,-11.194 2.452,-26.244 l -7.639,0 c -1.229,15.05 -0.523,23.798 2.138,26.244 l 0,2.138 -19.87,0 0,-2.138 c 1.641,-0.206 3,-0.854 4.118,-1.969 1.124,-1.126 4.536,-49.893 10.249,-146.324 l 15.88,0 c 7.534,96.432 11.706,145.198 12.542,146.324 0.808,1.115 2.036,1.763 3.652,1.969 l 0,2.138 -23.522,0 0,0 z m -4.744,-41.508 5.97,0 -3.052,-49.422 -2.918,49.422 0,0 z M 125.36,17.115 c 0.6,-3.671 -1.044,-5.884 -4.903,-6.717 l 0,-3.959 21.696,0 11.916,85.13 0,-75.677 c 0,-3.045 -1.226,-4.766 -3.677,-5.181 l 0,-4.272 18.645,0 0,3.958 c -2.633,0.623 -3.859,4.897 -3.651,12.812 l 0,133.667 -14.367,0 -14.677,-95.804 0,85.748 c -0.603,4.459 0.938,6.585 4.587,6.403 l 0,3.652 -20.78,0 0.31,-3.368 c 3.47,-0.386 5.085,-2.729 4.903,-6.995 l 0,-129.397 -0.002,0 z m -50.919,-6.404 0,-4.272 23.516,0 -0.284,4.271 c -2.867,0.415 -4.278,2.445 -4.278,6.092 l 0,127.572 c 0.08,5.995 1.721,8.85 4.875,8.543 l 0,4.266 -23.829,0 0,-4.266 c 2.841,0.421 4.274,-2.446 4.274,-8.543 l 0,-127.571 c 10e-4,-3.647 -1.433,-5.677 -4.274,-6.092 l 0,0 z M 11.316,15.58 c 0,-3.253 -1.829,-4.869 -5.503,-4.869 l 0,-3.959 46.75,0 0,50.049 -4.278,0 C 46.852,40.915 44.608,30.083 41.559,24.279 38.508,18.495 33.918,15.503 27.818,15.295 l 0,51.87 c 5.502,1.822 8.344,-5.805 8.554,-22.891 l 4.277,0.315 0,62.553 -4.277,0 c 0,-16.482 -2.841,-25.343 -8.554,-26.538 l 0,64.988 c 0,5.892 1.41,8.133 4.277,6.7 l 0.313,4.584 -25.681,0 -0.313,-4.584 c 3.467,1.216 5.108,-0.91 4.903,-6.405 l 0,-130.307 -10e-4,0 z"
   id="XMLID_1_" />
		</defs>
		
		<clipPath
   id="XMLID_3_">
			<use
   id="use15"
   x="0"
   y="0"
   width="811.62701"
   height="163.603"
   xlink:href="#XMLID_1_" />
		</clipPath>
	<use
   transform="translate(2.7235806,-179.07543)"
   id="use2190"
   x="0"
   y="0"
   width="811.62701"
   height="163.603"
   xlink:href="#XMLID_1_" /></g>
</g>
</svg>